<svg xmlns="http://www.w3.org/2000/svg" viewBox="0 0 94 80"><defs><style>.cls-1{fill:#b83e27;}.cls-2{fill:#e8c8c5;}.cls-3{fill:#fbead8;}.cls-4,.cls-5{fill:none;stroke:#000;stroke-linejoin:round;}.cls-4{stroke-linecap:round;}.cls-6{fill:#743132;}</style></defs><title>ballot-box</title><g id="Layer_2" data-name="Layer 2"><g id="Layer_1-2" data-name="Layer 1"><rect class="cls-1" x="26.5" y="48.01" width="67.18" height="31.99"/><polygon class="cls-2" points="45.29 65.84 43.86 61.44 42.43 65.84 37.8 65.84 41.54 68.56 40.11 72.97 43.86 70.25 47.61 72.97 46.18 68.56 49.92 65.84 45.29 65.84"/><polygon class="cls-2" points="62.04 65.84 60.61 61.44 59.17 65.84 54.54 65.84 58.29 68.56 56.86 72.97 60.61 70.25 64.36 72.97 62.92 68.56 66.67 65.84 62.04 65.84"/><polygon class="cls-2" points="78.78 65.84 77.35 61.44 75.92 65.84 71.29 65.84 75.04 68.56 73.61 72.97 77.35 70.25 81.1 72.97 79.67 68.56 83.42 65.84 78.78 65.84"/><polygon class="cls-2" points="40.15 53.6 81.87 53.59 82.4 51.11 40.67 51.11 40.15 53.6"/><path class="cls-3" d="M78.7,17.71l-17-4.25S47.91,9.75,44.91,10.75l-2.68,4.89L38.6,30.17c-.61,2.46,0,5.65,2.51,6.26l2.74.68L72.1,44.16c2.46.61,4.54-1.89,5.16-4.35l4.16-16.65C82,20.7,81.16,18.33,78.7,17.71Z"/><polyline class="cls-4" points="56.08 31.32 57.24 34.35 61.95 31.55"/><rect class="cls-5" x="54.09" y="28.47" width="8.83" height="8.83" transform="translate(11.89 81.16) rotate(-75.34)"/><path class="cls-6" d="M41.87,19.65A44.77,44.77,0,0,1,46.43,24l.05.07a1.27,1.27,0,0,0,.38.37,1.11,1.11,0,0,0,.45.16,1.06,1.06,0,0,0,.8-.22,1.28,1.28,0,0,0,.33-.41,1.61,1.61,0,0,0,.17-.54,1.64,1.64,0,0,0-.07-.73c-.11-.3.07.13,0-.18l0-.06c-.11-.3,0,0-.13-.34l0-.08-.16-.4,0-.08-.2-.46,0-.07c-.06-.13,0,0-.09-.18l-.05-.12-.22-.47-.27-.56-.17-.34-.1-.2-.25-.48,0,0q-.4-.77-.81-1.47h0l-.21-.36-.06-.1-.09-.15-.18-.3,0-.07a.87.87,0,0,1-.08-.44h0a.53.53,0,0,1,0-.07h0v-.07h0a.86.86,0,0,1,.22-.39l.05,0,.06,0a.63.63,0,0,1,.91.21,43.1,43.1,0,0,1,2.25,4.18h0L49,20l.06.13.18.4,0,.08.21.48,0,.09.16.4,0,.1.37.94,0,.07q.18.48.34.94h0q.19.55.37,1.08a1,1,0,0,0,.81.7h0a1,1,0,0,0,.39,0,1,1,0,0,0,.35-.16,1.23,1.23,0,0,0,.36-.41,1.65,1.65,0,0,0,.19-.59h0a.88.88,0,0,0,0-.38q-.63-2-1.28-4.09-.95-3-1.91-5.89a.91.91,0,0,1,0-.61.79.79,0,0,1,.39-.43.61.61,0,0,1,.53,0,.72.72,0,0,1,.36.43q1,2.92,1.92,5.91.69,2.18,1.35,4.34a1.28,1.28,0,0,0,.37.49,1.07,1.07,0,0,0,.53.23,1,1,0,0,0,.54-.08,1.16,1.16,0,0,0,.46-.42,1.58,1.58,0,0,0,.22-1.14c0-.11-.67-3.21-1-4.69-.53-2.22-1.13-4.27-1.74-6.15a.92.92,0,0,1,0-.61A.8.8,0,0,1,54,10.7a.62.62,0,0,1,.53,0,.73.73,0,0,1,.36.43c.63,1.92,1.23,4,1.78,6.28.36,1.49.3,1.17.56,2.55q0,.13.08.26a1.07,1.07,0,0,0,.23.34.92.92,0,0,0,.52.26.83.83,0,0,0,.32,0,1,1,0,0,0,.53-.35,1.28,1.28,0,0,0,.27-.63,4.59,4.59,0,0,0,0-.61v.25c.29-6.84-2-18.34-2.63-19.45H0V.12C5.88,3.4,16.81,8.19,18.38,9.17Z"/><path class="cls-6" d="M41.94,19.66,18.07,9C28.79,15.89,41.94,19.66,41.94,19.66Z"/></g></g></svg>
